<svg xmlns="http://www.w3.org/2000/svg"><symbol viewBox="0 0 224 224" id="dots"><title>dots</title><g class="ring-1"><circle cx="112.1" cy="64.6" r="3.5"/><circle cx="99.8" cy="66.2" r="3.5"/><circle cx="88.3" cy="71" r="3.5"/><circle cx="78.5" cy="78.5" r="3.5"/><circle cx="70.9" cy="88.4" r="3.5"/><circle cx="66.2" cy="99.8" r="3.5"/><circle cx="64.6" cy="112.1" r="3.5"/><circle cx="66.2" cy="124.4" r="3.5"/><circle cx="70.9" cy="135.9" r="3.5"/><circle cx="78.5" cy="145.7" r="3.5"/><circle cx="88.3" cy="153.3" r="3.5"/><circle cx="99.8" cy="158" r="3.5"/><circle cx="112.1" cy="159.6" r="3.5"/><circle cx="124.4" cy="158" r="3.5"/><circle cx="135.8" cy="153.3" r="3.5"/><circle cx="145.7" cy="145.7" r="3.5"/><circle cx="153.2" cy="135.9" r="3.5"/><circle cx="158" cy="124.4" r="3.5"/><circle cx="159.6" cy="112.1" r="3.5"/><circle cx="158" cy="99.8" r="3.5"/><circle cx="153.2" cy="88.4" r="3.5"/><circle cx="145.7" cy="78.5" r="3.5"/><circle cx="135.8" cy="71" r="3.5"/><circle cx="124.4" cy="66.2" r="3.5"/></g><g class="ring-2"><circle cx="112" cy="49.6" r="3.5"/><circle cx="95.8" cy="51.8" r="3.5"/><circle cx="80.8" cy="58" r="3.5"/><circle cx="67.8" cy="68" r="3.5"/><circle cx="57.9" cy="80.9" r="3.5"/><circle cx="51.7" cy="96" r="3.5"/><circle cx="49.6" cy="112.2" r="3.5"/><circle cx="51.7" cy="128.4" r="3.5"/><circle cx="58" cy="143.4" r="3.5"/><circle cx="67.9" cy="156.4" r="3.5"/><circle cx="80.9" cy="166.3" r="3.5"/><circle cx="96" cy="172.5" r="3.5"/><circle cx="112.2" cy="174.6" r="3.5"/><circle cx="128.3" cy="172.5" r="3.5"/><circle cx="143.4" cy="166.2" r="3.5"/><circle cx="156.3" cy="156.3" r="3.5"/><circle cx="166.2" cy="143.3" r="3.5"/><circle cx="172.5" cy="128.2" r="3.5"/><circle cx="174.6" cy="112" r="3.5"/><circle cx="172.4" cy="95.9" r="3.5"/><circle cx="166.2" cy="80.8" r="3.5"/><circle cx="156.2" cy="67.9" r="3.5"/><circle cx="143.3" cy="58" r="3.5"/><circle cx="128.2" cy="51.7" r="3.5"/></g><g class="ring-3"><circle cx="112" cy="34.6" r="3.5"/><circle cx="91.9" cy="37.3" r="3.5"/><circle cx="73.3" cy="45" r="3.5"/><circle cx="57.2" cy="57.4" r="3.5"/><circle cx="44.9" cy="73.4" r="3.5"/><circle cx="37.2" cy="92.1" r="3.5"/><circle cx="34.6" cy="112.2" r="3.5"/><circle cx="37.2" cy="132.3" r="3.5"/><circle cx="45" cy="150.9" r="3.5"/><circle cx="57.3" cy="167" r="3.5"/><circle cx="73.4" cy="179.3" r="3.5"/><circle cx="92.1" cy="187" r="3.5"/><circle cx="112.2" cy="189.6" r="3.5"/><circle cx="132.2" cy="187" r="3.5"/><circle cx="150.9" cy="179.2" r="3.5"/><circle cx="166.9" cy="166.9" r="3.5"/><circle cx="179.2" cy="150.8" r="3.5"/><circle cx="187" cy="132.1" r="3.5"/><circle cx="189.6" cy="112" r="3.5"/><circle cx="186.9" cy="92" r="3.5"/><circle cx="179.2" cy="73.3" r="3.5"/><circle cx="166.8" cy="57.3" r="3.5"/><circle cx="150.8" cy="45" r="3.5"/><circle cx="132.1" cy="37.2" r="3.5"/></g><g class="ring-4"><circle cx="112" cy="19.6" r="3.5"/><circle cx="88.1" cy="22.8" r="3.5"/><circle cx="65.8" cy="32.1" r="3.5"/><circle cx="46.6" cy="46.8" r="3.5"/><circle cx="31.9" cy="65.9" r="3.5"/><circle cx="22.7" cy="88.3" r="3.5"/><circle cx="19.6" cy="112.2" r="3.5"/><circle cx="22.7" cy="136.1" r="3.5"/><circle cx="32" cy="158.4" r="3.5"/><circle cx="46.7" cy="177.6" r="3.5"/><circle cx="65.9" cy="192.3" r="3.5"/><circle cx="88.2" cy="201.5" r="3.5"/><circle cx="112.2" cy="204.6" r="3.5"/><circle cx="136.1" cy="201.5" r="3.5"/><circle cx="158.4" cy="192.2" r="3.5"/><circle cx="177.5" cy="177.5" r="3.5"/><circle cx="192.2" cy="158.3" r="3.5"/><circle cx="201.5" cy="136" r="3.5"/><circle cx="204.6" cy="112" r="3.5"/><circle cx="201.4" cy="88.1" r="3.5"/><circle cx="192.1" cy="65.8" r="3.5"/><circle cx="177.4" cy="46.7" r="3.5"/><circle cx="158.3" cy="32" r="3.5"/><circle cx="135.9" cy="22.8" r="3.5"/></g><g class="ring-5"><circle cx="112" cy="4.6" r="3.5"/><circle cx="84.2" cy="8.3" r="3.5"/><circle cx="58.3" cy="19.1" r="3.5"/><circle cx="36" cy="36.2" r="3.5"/><circle cx="18.9" cy="58.4" r="3.5"/><circle cx="8.2" cy="84.4" r="3.5"/><circle cx="4.6" cy="112.2" r="3.5"/><circle cx="8.3" cy="140" r="3.5"/><circle cx="19" cy="165.9" r="3.5"/><circle cx="36.1" cy="188.2" r="3.5"/><circle cx="58.4" cy="205.3" r="3.5"/><circle cx="84.3" cy="216" r="3.5"/><circle cx="112.2" cy="219.6" r="3.5"/><circle cx="140" cy="215.9" r="3.5"/><circle cx="165.9" cy="205.2" r="3.5"/><circle cx="188.2" cy="188.1" r="3.5"/><circle cx="205.2" cy="165.8" r="3.5"/><circle cx="215.9" cy="139.9" r="3.5"/><circle cx="219.6" cy="112" r="3.5"/><circle cx="215.9" cy="84.2" r="3.5"/><circle cx="205.1" cy="58.3" r="3.5"/><circle cx="188" cy="36.1" r="3.5"/><circle cx="165.8" cy="19" r="3.5"/><circle cx="139.8" cy="8.3" r="3.5"/></g></symbol></svg>